<?xml version="1.0" encoding="UTF-8"?>
<svg id="Layer_1" data-name="Layer 1" xmlns="http://www.w3.org/2000/svg" width="2470.66" height="2470.66" viewBox="0 0 2470.66 2470.66">
  <defs>
    <style>
      .cls-1 {
        fill: #fff;
      }
    </style>
  </defs>
  <path class="cls-1" d="M2470.66,1334.06v1136.6H0C0,1647.11,0,823.56,0,0c823.55,0,1647.11,0,2470.66,0,0,396.53,0,793.05,0,1189.58-1.56-8.5-3.46-16.96-4.61-25.51-5.86-43.68-9.1-87.87-17.66-131.01-58.06-292.82-201.9-535.86-434.32-722.67C1707.5,63.98,1357.33-14.29,973.93,63.65c-263.9,53.65-484.73,187.76-662.11,389.52C142.11,646.21,40.4,871.21,13.11,1128.27c-26.06,245.52,10.41,480.73,125.81,699.73,153.24,290.81,382.89,496.57,695.86,605.23,60.33,20.95,98.52-5.34,98.07-68.96-.46-65.01-1.35-130.01-2.2-195.01-.08-6.04-1.28-12.07-1.19-11.26-60.18,0-117.76,2-175.14-.52-67.8-2.97-131.04-20.84-183.22-68.2-32.76-29.73-47.91-69.21-65.58-107.87-29.66-64.89-65.96-124.49-130.75-161.81-14.59-8.4-25.69-23.81-36.59-37.44-11.83-14.79-6.05-28.01,11.59-29.03,25.86-1.5,53.48-3.33,77.71,3.86,67.34,19.98,117.46,63.86,153.01,124.37,22.66,38.58,50.76,72.52,89.24,96.01,84.67,51.69,170.78,34.74,256.42,2.51,5.49-2.07,10.24-11.91,11.38-18.79,9.06-54.46,30.56-102.6,69.06-142.72,1.22-1.27,.79-4.13,.21-.52-74.76-18.79-150.29-31.87-221.54-57.04-113.48-40.09-207.18-108.35-262.49-219.99-40.03-80.79-60.77-166.71-68.47-256.23-12.71-147.64,11.37-284.6,112.99-400.05,5-5.68,7.88-17.83,5.45-24.76-31-88.41-26.29-176.46-.26-264.8,16.12-54.72,26.46-61.19,83.01-49.62,1.57,.32,3.08,.9,4.63,1.31,89.95,23.73,172.68,63.21,250.94,113.13,10.11,6.45,26.09,10.21,37.37,7.37,192.96-48.64,385.56-48.69,578.5,.05,10.74,2.71,25.08-.82,35.48-6.01,61.55-30.71,121.66-64.39,183.82-93.76,38.35-18.12,79.58-30.47,123.3-23.93,6.58,.98,15.84,6.1,17.96,11.59,37.15,95.9,50.99,193.79,17.91,293.73-6.12,18.49-3.66,30.05,8.72,44.35,50.31,58.07,82.82,125.37,98.74,200.58,15.82,74.74,13.31,150.06,4.49,225.13-11.35,96.61-37.1,189.28-93.4,269.97-76.63,109.83-189.1,165.44-314.89,197.38-46.85,11.9-95.09,18.3-143.2,27.3,12.38,16.38,25.61,31.4,36.06,48.15,35.8,57.39,42.36,121.93,42.65,187.46,.48,107.54-.21,215.09,.31,322.63,.26,54.71,36.18,81.64,88.12,64.19,93.74-31.5,182.93-73.21,266.55-126.33,159.94-101.6,287.79-235.13,388.11-394.98,89.76-143.04,147.07-298.52,169.6-466.28,5.11-38.02,8.97-76.21,13.41-114.31Z"/>
  <path d="M2470.66,1334.06c-4.44,38.11-8.31,76.3-13.41,114.31-22.53,167.76-79.83,323.24-169.6,466.28-100.31,159.84-228.17,293.37-388.11,394.98-83.62,53.12-172.81,94.84-266.55,126.33-51.94,17.45-87.86-9.47-88.12-64.19-.51-107.54,.17-215.09-.31-322.63-.29-65.53-6.85-130.07-42.65-187.46-10.45-16.75-23.67-31.77-36.06-48.15,48.11-9,96.36-15.4,143.2-27.3,125.79-31.94,238.26-87.54,314.89-197.38,56.3-80.69,82.06-173.36,93.4-269.97,8.82-75.07,11.32-150.4-4.49-225.13-15.92-75.21-48.43-142.51-98.74-200.58-12.39-14.3-14.85-25.86-8.72-44.35,33.08-99.95,19.23-197.83-17.91-293.73-2.13-5.49-11.38-10.6-17.96-11.59-43.72-6.54-84.96,5.81-123.3,23.93-62.16,29.37-122.27,63.05-183.82,93.76-10.39,5.18-24.73,8.72-35.48,6.01-192.94-48.74-385.54-48.69-578.5-.05-11.28,2.84-27.26-.92-37.37-7.37-78.26-49.92-160.98-89.4-250.94-113.13-1.55-.41-3.06-.99-4.63-1.31-56.55-11.57-66.89-5.1-83.01,49.62-26.03,88.35-30.74,176.4,.26,264.8,2.43,6.93-.45,19.08-5.45,24.76-101.62,115.45-125.7,252.41-112.99,400.05,7.7,89.52,28.44,175.44,68.47,256.23,55.32,111.64,149.01,179.9,262.49,219.99,71.25,25.17,146.78,38.25,221.54,57.04,.58-3.61,1.01-.75-.21,.52-38.5,40.12-60,88.26-69.06,142.72-1.15,6.88-5.89,16.73-11.38,18.79-85.64,32.23-171.75,49.18-256.42-2.51-38.48-23.49-66.57-57.43-89.24-96.01-35.55-60.51-85.67-104.39-153.01-124.37-24.24-7.19-51.86-5.36-77.71-3.86-17.64,1.03-23.42,14.24-11.59,29.03,10.9,13.63,22,29.03,36.59,37.44,64.8,37.31,101.1,96.92,130.75,161.81,17.67,38.67,32.82,78.14,65.58,107.87,52.19,47.36,115.42,65.23,183.22,68.2,57.38,2.52,114.96,.52,175.14,.52-.09-.8,1.11,5.22,1.19,11.26,.85,65,1.74,130,2.2,195.01,.45,63.61-37.74,89.9-98.07,68.96-312.98-108.66-542.62-314.42-695.86-605.23C23.52,1609-12.95,1373.79,13.11,1128.27c27.29-257.06,129-482.07,298.71-675.1C489.2,251.42,710.03,117.31,973.93,63.65c383.4-77.94,733.57,.32,1040.14,246.73,232.42,186.81,376.27,429.86,434.32,722.67,8.55,43.14,11.79,87.33,17.66,131.01,1.15,8.56,3.05,17.01,4.61,25.51v144.48Z"/>
</svg>