<?xml version="1.0" encoding="UTF-8"?>
<svg id="Layer_1" data-name="Layer 1" xmlns="http://www.w3.org/2000/svg" width="2249.9" height="2292.98" viewBox="0 0 2249.9 2292.98">
  <path d="M2249.53,1146.79c0,196.93,1,393.87-.28,590.8-1.31,201.74-112.57,386.42-288.86,484.51-86.1,47.91-178.44,70.91-276.85,70.87-372.34-.12-744.67-.07-1117.01-.04-138.97,.01-262.04-44.35-367.93-134.15-93.97-79.69-154.9-180.34-183.61-300.26-10.16-42.43-14.72-85.59-14.73-129.17-.07-388.5-.7-776.99,.27-1165.49C.95,395.2,65.48,253.58,191.01,140.92,269.89,70.13,362.59,26.5,467.14,8.23,500.74,2.36,534.55,0,568.63,0c372.08,.07,744.16,.05,1116.24,.05,206.9,0,393.96,109.63,494.5,290.44,47.83,86.02,70.49,178.57,70.35,277.01-.29,193.1-.09,386.2-.09,579.29h-.09Zm-174.89,.66c0-166.76,.14-333.52-.07-500.28-.08-61.33-12.4-120.4-36.33-176.82-39.16-92.33-101.07-165.67-185.95-219.25-74.81-47.23-156.59-72.44-245.07-72.58-318.64-.5-637.28-.28-955.93-.09-19.38,.01-38.88,1.09-58.12,3.4-105.86,12.7-197.54,56.3-273.57,130.73-96.19,94.17-144.38,209.48-144.48,344.22-.24,326.36-.08,652.71-.08,979.07,0,33.82,2.99,67.29,9.93,100.47,17.96,85.85,56.27,161.45,116.08,225.29,95.31,101.73,213.44,153.02,352.9,153.18,314.04,.36,628.08,.2,942.11-.07,22.94-.02,46.08-1.29,68.78-4.42,86.22-11.9,164.03-44.51,231.41-99.82,116.11-95.33,176.87-218.43,178.07-368.9,1.31-164.7,.3-329.42,.3-494.14Z"/>
  <path d="M1126.01,570.62c318.44,1.01,577.63,259.46,574.63,581.4-2.99,321.21-266.97,575.89-586.45,570.25-313.39-5.53-573.33-264.93-564.82-591.65,8.07-309.66,261.79-560.04,576.63-560Zm422.61,595.8c-.18-105.15-22.25-185.07-69.41-257.04-74.93-114.34-180.62-179.95-316.89-194.82-42.72-4.66-85.22-1.33-127.12,8.22-89.22,20.34-164.52,64.65-224.56,133.69-85.7,98.55-119.94,213.62-106.1,342.99,6.24,58.31,23.46,113.8,53.89,163.96,93.08,153.37,229.01,227.76,409.03,214.24,85.44-6.41,161.3-40.59,226.26-96.32,102.08-87.58,152.12-200.01,154.89-314.91Z"/>
  <path d="M1548.56,547.89c.07-95.82,77.37-172.94,173.34-172.92,95.65,.02,172.95,77.69,172.66,173.51-.28,95.36-77.64,172.18-173.26,172.05-95.51-.13-172.81-77.38-172.75-172.64Z"/>
</svg>