<?xml version="1.0" encoding="UTF-8"?>
<svg id="Layer_1" data-name="Layer 1" xmlns="http://www.w3.org/2000/svg" width="963.12" height="1012.8" viewBox="0 0 963.12 1012.8">
  <defs>
    <style>
      .cls-1 {
        fill: #ecf8fd;
      }
    </style>
  </defs>
  <path class="cls-1" d="M776.99,308.27c-3.33-1.72-6.8-3.08-10.36-4.14h-129.93c18.87-21.1,.25-45.77-3.5-50.32,2.26-1.87,4.25-3.92,5.94-6.1,47.48-61.58,0-116.18,0-116.18,0,0-70.7-48.9-140.7-9.6v-41.74h11.51c7.69,.63,18.33,3.04,23.94,11.23,1.73-.72,3.36-1.61,4.9-2.68,6.77-4.71,11.17-12.55,11.17-21.41v-1.39c0-8.87-4.4-16.7-11.17-21.41-1.54-1.06-3.17-1.96-4.9-2.68-5.61,8.19-16.25,10.6-23.94,11.23h-11.32c1.02-10.38,4.19-23.61,13.37-30.79-.87-2.41-1.94-4.7-3.24-6.8-5.67-9.36-15.15-15.49-25.84-15.49-.22,0-.39,0-.61,.03h-.1c-.19-.03-.37-.03-.58-.03h-.09c-.21,0-.39,0-.58,.03h-.1c-.22-.03-.39-.03-.61-.03-10.69,0-20.17,6.13-25.84,15.49-1.3,2.11-2.38,4.4-3.24,6.8,9.18,7.18,12.35,20.41,13.37,30.79h-11.32c-7.69-.63-18.33-3.04-23.94-11.23-1.73,.72-3.36,1.62-4.9,2.68-6.77,4.71-11.17,12.55-11.17,21.41v1.39c0,8.87,4.4,16.7,11.17,21.41,1.54,1.06,3.17,1.96,4.9,2.68,5.61-8.19,16.25-10.6,23.94-11.23h11.51v41.74c-70-39.3-140.7,9.6-140.7,9.6,0,0-47.48,54.6,0,116.18,1.69,2.18,3.68,4.23,5.94,6.1-3.75,4.55-22.37,29.22-3.5,50.32H196.5c-3.56,1.06-7.03,2.42-10.36,4.14-78.37,74.59-127.02,178.62-127.02,293.68,0,226.91,189.13,410.85,422.44,410.85s422.44-183.95,422.44-410.85c0-115.05-48.64-219.09-127.02-293.68Zm-194.22-166.21c11.16-2.95,25.62,15.36,32.33,40.84,6.73,25.5,3.14,48.54-8.02,51.47-5.44,1.44-11.71-2.21-17.45-9.32,6.07-22.6-6.61-66.98-10.89-80.81,1.21-1.06,2.54-1.79,4.02-2.18Zm30.27,127.75v6.98l-6.04,3.48-6.04-3.48v-6.98l6.04-3.48,6.04,3.48Zm-265.01-86.91c6.71-25.48,21.17-43.78,32.33-40.84,1.48,.39,2.81,1.12,4.02,2.18-4.28,13.83-16.96,58.21-10.89,80.81-5.74,7.1-12.01,10.75-17.45,9.32-11.16-2.93-14.74-25.97-8.02-51.47Zm14.15,86.91v6.98l-6.04,3.48-6.04-3.48v-6.98l6.04-3.48,6.04,3.48Zm37.59,471.04l-1.88,90.83c-11.28,35.95-36.2,53-36.62,53-40.88,6.47-68.41-17.05-69.85-18.33-.04-.01-.06-.03-.06-.03-15.18-9.11-34.59-23.27-48.69-42.41-.18-.24-.36-.48-.54-.7,.12,.16,.21,.31,.27,.4-8.72-9.26-14.91-19.34-16.6-21.83-11.16-14.76-19.42-29.29-25.96-44.34-56.44-103.54-40.43-234.34-36.94-258.67,.04-.33,.09-.63,.12-.93,0,0,3.53-6.89,6.04-11.11,1.36-2.33,6.39-7.48,7.04-8,.4-.34,.84-.66,1.26-1,2.42-1.94,5.02-3.92,7.73-5.89,35.04-25.81,92.43-54.84,159.29-37.61,.37,.09,.78,.18,1.17,.28,18.06,4.79,54.22,25.48,54.22,25.48v280.86Zm5.47-464.06l-6.06,3.48-6.04-3.48v-6.98l6.04-3.48,6.06,3.48v6.98Zm9.47-36.88c-11.05-2.23-15.84-24.64-10.71-50.04,5.14-25.41,18.29-44.19,29.35-41.95,1.45,.3,2.81,.96,4.04,1.93-3.38,13.8-13.29,58.08-6.1,79.91-5.23,7.3-11.17,11.25-16.58,10.14Zm31.66,36.88l-6.06,3.48-6.04-3.48v-6.98l6.04-3.48,6.06,3.48v6.98Zm41.93,0l-6.04,3.48-.69-.4-.69,.4-6.04-3.48v-6.98l6.04-3.48,.69,.4,.69-.4,6.04,3.48v6.98Zm8.06-52.83c-3.25,8.76-8.16,14.48-13.91,15-.06-.01-.15-.01-.19-.01-.06,0-.13,.01-.18,.01-.16-.01-.34-.03-.51-.06-.16,.03-.34,.04-.51,.06-.04,0-.12-.01-.18-.01-.04,0-.13,0-.19,.01-5.74-.52-10.66-6.24-13.91-15-3.05-8.21-4.64-19.1-4.11-30.97,.69-14.59,4.43-27.44,9.7-35.46,2.5-3.78,5.32-6.49,8.31-7.81,.06,.03,.15,.06,.19,.09,.06-.03,.13-.06,.18-.09,.16,.07,.34,.15,.51,.25,.16-.1,.34-.18,.51-.25,.04,.03,.12,.06,.18,.09,.04-.03,.13-.06,.19-.09,2.99,1.32,5.82,4.02,8.31,7.81,5.28,8.02,9.02,20.86,9.7,35.46,.52,11.87-1.06,22.76-4.11,30.97Zm32.51,52.83l-6.04,3.48-6.06-3.48v-6.98l6.06-3.48,6.04,3.48v6.98Zm19.56-36.88c-5.41,1.11-11.35-2.84-16.58-10.14,7.19-21.83-2.72-66.11-6.1-79.91,1.23-.97,2.59-1.63,4.04-1.93,11.07-2.24,24.21,16.54,29.35,41.95,5.13,25.39,.34,47.81-10.71,50.04Zm9.47,29.89l6.06-3.48,6.04,3.48v6.98l-6.04,3.48-6.06-3.48v-6.98Zm205.4,487.63c-6.53,15.04-14.8,29.58-25.96,44.34-1.69,2.5-7.88,12.58-16.6,21.83,.06-.09,.15-.24,.27-.4-.18,.22-.36,.46-.54,.7-14.1,19.14-33.51,33.3-48.69,42.41,0,0-.01,.01-.06,.03-1.44,1.29-28.97,24.81-69.85,18.33-.42,0-25.35-17.05-36.62-53l-1.88-90.83V459.99s36.16-20.7,54.22-25.48c.39-.1,.79-.19,1.17-.28,66.86-17.23,124.25,11.8,159.29,37.61,2.71,1.97,5.31,3.95,7.73,5.89,.42,.34,.85,.66,1.26,1,.66,.52,5.68,5.67,7.04,8,2.51,4.22,6.04,11.11,6.04,11.11,.03,.3,.07,.6,.12,.93,3.5,24.33,19.5,155.13-36.94,258.67Z"/>
</svg>