<?xml version="1.0" encoding="UTF-8"?>
<svg id="Layer_1" data-name="Layer 1" xmlns="http://www.w3.org/2000/svg" width="2585.54" height="2470.66" viewBox="0 0 2585.54 2470.66">
  <path d="M1285.98,327.77c243.04,3.02,485.66,12.89,728.18,26.08,77.89,4.24,155.73,9.49,233.62,13.8,149,8.23,274.76,126.58,294.92,275,22.13,162.92,37.14,326.34,41.36,490.72,4.6,179.28-1.21,358.2-20.85,536.5-7.63,69.28-11.56,139.87-28.41,207.04-31.73,126.5-110.17,214.79-239.04,250.15-31.3,8.59-65.21,8.52-98.04,10.57-327.41,20.44-654.97,39.59-983.16,33.74-196.05-3.49-392-13.54-587.94-21.97-98.23-4.22-196.42-10.21-294.46-17.59-96.79-7.29-169.91-57.18-226.79-133.43-44.23-59.28-59.71-127.94-68.94-199.88C2.26,1532.33-9.37,1265.32,7.96,997.58c7.83-121.03,21.11-241.87,36.66-362.18,18.63-144.19,141.56-257.9,286.37-267.74,133.73-9.08,267.59-16.94,401.51-22.28,184.44-7.37,368.98-11.87,553.49-17.6Zm-285.79,1286.4c233.65-125.47,464.79-249.59,699.06-375.39-234.71-125.97-465.87-250.03-699.06-375.18v750.58Z"/>
</svg>